<svg width="110" height="85" viewBox="0 0 110 85" fill="none" xmlns="http://www.w3.org/2000/svg">
<path opacity="0.3" d="M0 85V61.6189C0 54.7182 1.28514 47.4522 3.85542 39.8209C6.4257 32.1896 10 24.883 14.5783 17.9011C19.1566 10.9193 24.5382 4.95223 30.7229 0L48.5542 12.9083C43.6546 20.1337 39.4779 27.6838 36.0241 35.5587C32.5703 43.4336 30.8434 51.9986 30.8434 61.2536V85H0ZM61.4458 85V61.6189C61.4458 54.7182 62.7309 47.4522 65.3012 39.8209C67.8715 32.1896 71.4458 24.883 76.0241 17.9011C80.6024 10.9193 85.9839 4.95223 92.1687 0L110 12.9083C105.1 20.1337 100.924 27.6838 97.4699 35.5587C94.0161 43.4336 92.2892 51.9986 92.2892 61.2536V85H61.4458Z" fill="#F4F9F9"/>
</svg>
