<svg width="64" height="64" viewBox="0 0 64 64" fill="none" xmlns="http://www.w3.org/2000/svg">
<g clip-path="url(#clip0_96_1355)">
<path fill-rule="evenodd" clip-rule="evenodd" d="M64 32C64 49.6731 49.6731 64 32 64C14.3269 64 0 49.6731 0 32C0 14.3269 14.3269 0 32 0C49.6731 0 64 14.3269 64 32ZM33.1467 23.6238C30.0343 24.9184 23.8137 27.5979 14.485 31.6622C12.9702 32.2646 12.1767 32.8539 12.1044 33.4301C11.9824 34.404 13.2019 34.7875 14.8626 35.3097C15.0885 35.3807 15.3225 35.4543 15.5625 35.5323C17.1964 36.0634 19.3942 36.6847 20.5368 36.7094C21.5732 36.7318 22.7299 36.3045 24.007 35.4276C32.7231 29.544 37.2224 26.5702 37.5048 26.506C37.7041 26.4608 37.9803 26.4039 38.1674 26.5703C38.3545 26.7366 38.3361 27.0515 38.3163 27.136C38.1955 27.651 33.4083 32.1016 30.931 34.4047C30.1587 35.1227 29.6109 35.632 29.4989 35.7484C29.248 36.0089 28.9923 36.2554 28.7466 36.4923C27.2287 37.9555 26.0904 39.0529 28.8096 40.8448C30.1164 41.7059 31.162 42.418 32.2052 43.1284C33.3445 43.9042 34.4808 44.678 35.951 45.6418C36.3255 45.8873 36.6833 46.1423 37.0317 46.3907C38.3575 47.3359 39.5487 48.1851 41.0202 48.0497C41.8753 47.971 42.7586 47.167 43.2071 44.7689C44.2672 39.1017 46.351 26.8225 46.8326 21.7626C46.8748 21.3193 46.8217 20.7519 46.7791 20.5029C46.7365 20.2538 46.6474 19.899 46.3236 19.6363C45.9402 19.3252 45.3484 19.2596 45.0836 19.2642C43.8801 19.2854 42.0335 19.9275 33.1467 23.6238Z" fill="black"/>
</g>
<defs>
<clipPath id="clip0_96_1355">
<rect width="64" height="64" fill="white"/>
</clipPath>
</defs>
</svg>
