<svg width="64" height="64" viewBox="0 0 64 64" fill="none" xmlns="http://www.w3.org/2000/svg">
<g clip-path="url(#clip0_96_1354)">
<path fill-rule="evenodd" clip-rule="evenodd" d="M4.49884 4.49884C0 8.99768 0 16.2384 0 30.72V33.28C0 47.7616 0 55.0023 4.49884 59.5012C8.99768 64 16.2384 64 30.72 64H33.28C47.7616 64 55.0023 64 59.5012 59.5012C64 55.0023 64 47.7616 64 33.28V30.72C64 16.2384 64 8.99768 59.5012 4.49884C55.0023 0 47.7616 0 33.28 0H30.72C16.2384 0 8.99768 0 4.49884 4.49884ZM10.8002 19.4668C11.1468 36.1068 19.4668 46.1068 34.0535 46.1068H34.8803V36.5868C40.2403 37.1201 44.2933 41.0401 45.92 46.1068H53.4935C51.4135 38.5335 45.9465 34.3468 42.5332 32.7468C45.9465 30.7735 50.7465 25.9735 51.8932 19.4668H45.0131C43.5197 24.7468 39.0936 29.5468 34.8803 30.0001V19.4668H28V37.9201C23.7333 36.8535 18.3468 31.6801 18.1068 19.4668H10.8002Z" fill="black"/>
</g>
<defs>
<clipPath id="clip0_96_1354">
<rect width="64" height="64" fill="white"/>
</clipPath>
</defs>
</svg>
