<svg width="1520" height="1103" viewBox="0 0 1520 1103" fill="none" xmlns="http://www.w3.org/2000/svg">
<path d="M1370.69 -69.9026C1300.72 -100.649 1216.78 -96.9261 1149.88 -60.1134C1082.84 -23.3008 1034.23 45.9124 1021.8 122.019C1006.02 218.808 1045.41 324.006 1005.18 413.349C971.103 489.043 890.515 529.44 817.33 567.218C744.005 605.133 665.791 654.355 644.981 734.874C630.875 789.197 645.679 851.102 618.165 899.772C590.092 949.269 526.544 967.469 470.398 961.954C414.252 956.577 361.737 932.586 307.267 917.42C142.46 871.232 -43.2965 909.286 -177.237 1016.97" stroke="#141414" stroke-miterlimit="10"/>
<path d="M1377.81 -67.1451C1333.82 -86.0339 1284.23 -90.8596 1237.59 -82.1734C1209.23 -76.9342 1181.86 -66.7314 1157.28 -51.9788C1140.94 -42.0518 1125.85 -30.1946 1112.3 -16.8207C1079.9 15.4421 1056.72 56.5288 1043.31 101.476C1040.1 112.23 1037.44 123.122 1035.49 134.152C1028.64 171.654 1028.64 209.846 1028.92 247.072C1029.34 295.466 1030.46 342.481 1016.07 386.326C1012.86 395.977 1008.95 405.628 1004.06 415.004C986.465 448.921 958.95 475.393 927.106 498.418C891.631 524.063 850.709 545.571 813.417 566.942C808.389 569.837 803.362 572.733 798.334 575.766C761.881 597.688 726.964 622.644 700.008 653.252C678.499 677.518 662.158 705.644 655.175 738.734C651.404 756.382 650.566 774.858 650.426 793.333C649.868 831.662 651.823 870.956 633.248 904.184C608.946 947.477 557.129 966.366 507.268 967.055C500.285 967.193 493.441 966.917 486.598 966.366C430.871 961.678 378.635 939.48 324.724 925.969C311.176 922.522 297.489 919.764 283.801 917.42C207.683 904.874 129.051 910.113 55.7258 931.07C-17.3198 952.027 -84.6393 988.564 -140.087 1036.82" stroke="#0A0A0A" stroke-miterlimit="10"/>
<path d="M1384.94 -64.2501C1340.38 -82.8632 1290.38 -86.5859 1243.87 -76.521C1215.66 -70.4545 1188.7 -59.2866 1164.82 -43.5689C1148.9 -33.0904 1134.37 -20.6816 1121.66 -6.75622C1091.08 26.6095 1070.41 68.3856 1057.28 113.609C1054.06 124.501 1051.41 135.531 1049.18 146.561C1041.49 184.201 1039.4 221.703 1037.58 257.688C1035.21 304.29 1033.25 348.548 1016.63 389.91C1013 399.01 1008.67 408.11 1003.37 416.934C984.371 448.921 955.879 474.014 923.477 496.625C887.303 521.719 846.101 544.192 810.067 566.942C805.179 569.975 800.43 573.146 795.682 576.317C760.905 599.756 729.34 625.676 705.317 656.836C686.043 681.516 671.797 709.78 666.211 742.732C663.278 760.38 663.138 778.855 663.557 797.331C664.395 835.66 667.607 875.092 649.032 908.872C625.149 951.889 573.472 970.364 524.03 971.467C517.186 971.605 510.343 971.467 503.499 970.915C448.191 966.917 396.235 946.511 342.882 934.654C329.474 931.621 315.927 929.277 302.379 927.485C227.238 917.282 150.142 924.865 79.8898 948.166C9.91684 971.329 -52.6538 1009.8 -102.515 1057.09" stroke="#3F3F3F" stroke-miterlimit="10"/>
<path d="M1391.92 -61.3546C1346.81 -79.5541 1296.25 -82.4495 1249.88 -71.0059C1221.8 -64.1121 1195.27 -51.9791 1172.22 -35.2962C1156.86 -24.2662 1142.89 -11.306 1130.88 3.17091C1102.11 37.6397 1084.09 79.9673 1070.96 125.742C1067.89 136.772 1064.96 147.802 1062.58 158.832C1054.2 196.472 1049.87 233.56 1045.82 268.167C1040.52 313.114 1035.49 354.476 1016.77 393.219C1012.58 401.767 1007.83 410.316 1002.11 418.588C981.717 448.645 952.248 472.36 919.147 494.42C882.275 519.099 840.794 542.262 806.017 566.528C801.268 569.837 796.659 573.146 792.189 576.455C759.088 601.273 730.876 628.434 709.646 660.007C692.747 685.101 680.317 713.503 676.406 746.455C674.311 764.103 674.87 782.44 675.987 800.916C678.222 839.107 682.691 878.953 664.115 913.008C640.512 955.749 589.114 973.949 540.091 975.327C533.247 975.465 526.543 975.465 519.839 975.052C464.95 971.743 413.274 952.992 360.48 942.927C347.211 940.307 333.804 938.377 320.396 936.998C246.233 929.139 170.673 939.204 103.353 964.573C36.3135 989.942 -21.3689 1030.34 -65.5036 1076.67" stroke="#505050" stroke-miterlimit="10"/>
<path d="M1399.04 -58.459C1353.37 -76.3827 1302.25 -78.313 1256.16 -65.3527C1228.23 -57.6317 1202.11 -44.3958 1179.76 -27.0235C1164.82 -15.442 1151.55 -1.79239 1140.38 12.9602C1113.42 48.532 1097.92 91.549 1085.07 137.737C1082 148.905 1079.06 160.073 1076.27 171.103C1067.05 208.881 1060.63 245.417 1054.34 278.645C1046.1 321.8 1038 360.405 1017.05 396.666C1012.44 404.663 1007.14 412.522 1001.13 420.381C979.203 448.507 948.895 470.843 915.235 492.489C877.665 516.618 836.044 540.746 802.385 566.39C797.915 569.837 793.446 573.284 789.116 577.007C757.691 603.341 732.831 631.467 714.395 663.73C699.73 689.237 689.255 717.777 686.88 750.729C685.623 768.377 686.88 786.715 688.696 805.052C692.188 843.106 698.193 883.365 679.478 917.834C656.433 960.437 605.036 978.085 556.432 979.877C549.728 980.153 542.884 980.153 536.32 979.74C481.85 977.12 430.452 960.161 378.217 951.751C365.088 949.683 351.82 948.028 338.691 947.063C265.506 941.548 191.483 954.095 127.236 981.67C63.2687 1009.24 10.3351 1051.57 -28.0732 1096.93" stroke="#424242" stroke-miterlimit="10"/>
<path d="M1406.16 -55.5636C1359.93 -73.2116 1308.26 -74.1768 1262.31 -59.8378C1234.51 -51.1516 1208.82 -37.0884 1187.17 -18.751C1172.64 -6.48016 1160.07 7.58311 1149.6 22.8872C1124.46 59.562 1111.61 103.268 1098.9 149.87C1095.83 161.176 1092.75 172.344 1089.82 183.374C1079.9 221.151 1071.24 257.275 1062.72 289.124C1051.69 330.624 1040.38 366.472 1017.33 400.113C1012.16 407.558 1006.58 414.866 1000.01 422.173C976.69 448.369 945.404 469.326 911.046 490.559C872.638 514.136 830.877 539.229 798.475 566.252C794.145 569.837 789.955 573.56 785.905 577.42C756.156 605.271 734.787 634.501 719.144 667.177C706.714 693.098 698.194 721.913 697.356 754.728C696.937 772.376 698.892 790.713 701.267 809.05C706.155 846.966 713.418 887.639 694.702 922.384C671.937 964.711 620.819 982.084 572.634 984.152C565.93 984.427 559.226 984.427 552.661 984.29C498.61 982.359 447.493 967.193 395.816 960.437C382.827 958.783 369.838 957.542 356.709 956.99C284.502 953.819 212.154 968.71 150.84 998.628C89.8061 1028.41 41.6211 1072.67 9.0788 1117.06" stroke="#424242" stroke-miterlimit="10"/>
<path d="M1413.29 -52.6684C1366.5 -70.0406 1314.26 -69.9027 1268.59 -54.185C1240.94 -44.6716 1215.66 -29.6433 1194.71 -10.3408C1180.74 2.4816 1168.73 17.0964 1158.95 32.8141C1135.77 70.7297 1125.43 114.85 1112.86 162.003C1109.79 173.447 1106.72 184.614 1103.51 195.782C1092.75 233.698 1082.14 269.132 1071.24 299.74C1057.28 339.448 1042.89 372.538 1017.61 403.698C1012.02 410.592 1005.88 417.347 999.036 424.103C974.315 448.369 942.052 467.948 907.135 488.767C868.029 511.93 825.989 537.85 794.843 566.252C790.653 570.113 786.603 573.973 782.832 577.972C754.759 607.201 736.742 637.534 723.892 670.762C713.836 697.096 707.132 726.049 707.97 758.864C708.389 776.512 711.043 794.849 714.116 813.049C720.401 850.826 728.921 891.913 710.205 927.071C687.859 969.261 636.88 986.082 589.114 988.564C582.41 988.977 575.846 988.977 569.281 988.839C515.789 987.598 464.811 974.087 413.693 969.123C400.843 967.882 387.994 967.193 375.005 967.055C303.775 966.228 232.964 983.6 174.723 1015.72C116.761 1047.71 73.3251 1093.9 46.5091 1137.33" stroke="#292929" stroke-miterlimit="10"/>
<path d="M1420.27 -49.9106C1373.06 -67.0071 1320.13 -65.9041 1274.74 -48.8076C1247.22 -38.467 1222.36 -22.4735 1202.11 -2.2059C1188.56 11.168 1177.25 26.3342 1168.31 42.6035C1146.94 81.6221 1139.12 126.431 1126.69 173.998C1123.76 185.442 1120.41 196.886 1117.05 208.053C1105.6 245.969 1092.75 280.989 1079.62 310.219C1062.72 348.272 1045.4 378.467 1017.89 407.007C1011.88 413.349 1005.32 419.554 997.918 425.758C971.8 448.094 938.42 466.431 902.945 486.561C863.14 509.172 820.821 535.92 790.932 565.977C786.882 569.975 783.111 574.112 779.479 578.248C753.082 608.994 738.417 640.292 728.501 674.071C720.68 700.681 716.071 729.91 718.305 762.587C719.562 780.235 722.914 798.434 726.685 816.771C734.227 854.549 744.144 895.774 725.568 931.346C703.501 973.26 652.802 989.805 605.455 992.562C598.89 992.976 592.326 993.114 585.762 993.114C532.688 992.7 481.989 980.843 431.43 977.534C418.72 976.707 406.011 976.431 393.301 976.706C323.049 978.223 253.774 998.077 198.606 1032.27C143.577 1066.46 105.029 1114.58 83.7996 1157.05" stroke="#363636" stroke-miterlimit="10"/>
<path d="M1427.39 -47.0156C1379.63 -63.8363 1326.27 -61.7682 1280.88 -43.155C1253.51 -31.9872 1229.07 -14.8907 1209.51 6.06631C1196.52 20.1296 1185.77 35.8473 1177.53 52.5302C1157.98 92.6518 1152.81 138.013 1140.52 186.131C1137.58 197.713 1134.23 209.156 1130.6 220.324C1118.45 258.378 1103.37 292.846 1088 320.697C1068.17 356.958 1047.78 384.533 1018.17 410.454C1011.61 416.106 1004.62 421.897 996.94 427.55C969.286 447.956 935.068 464.914 898.894 484.63C858.391 506.69 815.792 534.403 787.3 565.839C783.529 569.975 779.898 574.387 776.406 578.661C751.685 610.924 740.372 643.187 733.249 677.517C727.663 704.541 725.009 733.908 728.78 766.585C730.875 784.233 734.925 802.432 739.255 820.632C748.194 858.272 759.367 899.91 740.791 935.895C719.143 977.533 668.584 993.665 621.656 996.836C615.091 997.25 608.667 997.525 602.242 997.525C549.588 997.801 499.168 987.736 449.028 986.082C436.458 985.668 423.888 985.806 411.318 986.495C342.043 990.356 274.444 1012.69 222.209 1049.09C170.253 1085.49 136.454 1135.54 120.951 1177.04" stroke="#363636" stroke-miterlimit="10"/>
<path d="M1434.52 -44.1202C1386.19 -60.6652 1332.28 -57.632 1287.17 -37.6401C1259.93 -25.645 1235.91 -7.58335 1217.06 14.3388C1204.49 28.9535 1194.29 45.2228 1186.89 62.3193C1169.15 103.544 1166.5 149.594 1154.48 198.126C1151.55 209.846 1148.06 221.427 1144.29 232.595C1131.3 270.786 1114.12 304.566 1096.52 331.313C1073.9 365.92 1050.43 390.6 1018.45 414.038C1011.47 419.14 1003.92 424.379 995.963 429.48C966.912 447.956 931.716 463.536 894.984 482.838C853.782 504.484 810.905 533.025 783.67 565.839C780.038 570.251 776.547 574.663 773.474 579.351C750.429 612.992 742.468 646.358 738.278 681.24C734.926 708.677 734.228 738.32 739.535 770.859C742.468 788.507 747.217 806.706 752.245 824.906C762.58 862.408 775.01 904.46 756.435 940.721C735.205 982.221 684.646 997.939 638.277 1001.39C631.852 1001.94 625.288 1002.21 619.003 1002.35C566.767 1003.32 516.627 994.906 467.045 995.044C454.615 995.044 442.185 995.595 429.754 996.698C361.457 1002.9 295.395 1027.58 246.232 1066.33C197.349 1104.93 168.159 1156.91 158.522 1197.44" stroke="#363636" stroke-miterlimit="10"/>
<path d="M1441.5 -41.2248C1392.62 -57.4941 1338.15 -53.4957 1293.17 -31.9872C1266.08 -19.1648 1242.47 -0.138067 1224.46 22.7492C1212.45 37.9154 1202.81 54.7362 1196.11 72.3842C1180.18 114.712 1180.18 161.451 1168.31 210.397C1165.38 222.254 1161.89 233.836 1157.84 245.004C1144.15 283.195 1124.74 316.561 1104.9 341.93C1079.34 374.744 1052.81 396.666 1018.73 417.623C1011.19 422.173 1003.37 426.723 994.845 431.411C964.398 447.956 928.224 462.157 890.794 480.908C848.894 502.003 805.737 531.508 779.759 565.701C776.267 570.251 773.055 574.939 770.122 579.764C748.892 614.922 744.144 649.253 742.747 684.687C741.63 712.4 743.026 742.319 749.87 774.857C753.641 792.505 759.088 810.705 764.814 828.766C776.546 866.13 790.234 908.458 771.658 945.271C750.708 986.495 700.428 1001.8 654.478 1005.66C648.053 1006.21 641.628 1006.63 635.343 1006.76C583.527 1008.42 533.666 1001.8 484.643 1003.59C472.352 1004.01 460.062 1004.97 447.771 1006.63C380.452 1015.04 315.926 1042.33 269.836 1083.28C223.885 1124.09 199.583 1178 195.673 1217.57" stroke="#363636" stroke-miterlimit="10"/>
<path d="M1448.62 -38.3297C1399.18 -54.3232 1344.15 -49.2218 1299.46 -26.4724C1272.36 -12.8228 1249.32 7.30692 1232 30.8835C1220.41 46.6013 1211.47 64.1114 1205.6 82.1731C1191.5 125.604 1194.01 172.895 1182.42 222.392C1179.62 234.387 1175.85 246.106 1171.66 257.274C1157.14 295.604 1135.63 328.418 1113.7 352.408C1085.21 383.568 1055.74 402.732 1019.29 420.932C1011.33 424.93 1002.95 428.929 994.147 433.065C962.163 447.68 925.151 460.502 887.162 478.839C844.564 499.383 801.267 529.715 776.406 565.425C773.054 570.251 769.982 575.076 767.328 580.04C747.775 616.714 746.378 652.01 747.775 687.996C748.892 716.122 752.244 746.179 760.624 778.718C765.233 796.366 771.378 814.427 777.803 832.627C790.792 869.853 805.876 912.594 787.3 949.683C766.769 990.631 716.629 1005.52 671.098 1009.8C664.813 1010.35 658.388 1010.9 652.103 1011.17C600.706 1013.52 551.124 1008.69 502.66 1012.14C490.509 1012.97 478.358 1014.48 466.346 1016.41C400.144 1027.17 337.015 1056.95 293.998 1099.97C251.12 1142.98 231.567 1198.82 233.382 1237.43" stroke="#363636" stroke-miterlimit="10"/>
<path d="M1455.75 -35.4339C1405.74 -51.1517 1350.16 -45.0852 1305.6 -20.8192C1278.65 -6.20447 1256.02 14.7525 1239.4 39.2943C1228.37 55.7014 1219.99 73.6252 1214.82 92.1004C1202.53 136.772 1207.7 184.615 1196.11 234.387C1193.31 246.52 1189.54 258.24 1185.07 269.546C1169.85 307.875 1146.1 340.275 1121.94 362.887C1090.66 392.254 1057.97 408.661 1019.43 424.379C1011.05 427.826 1002.11 431.273 992.89 434.858C959.51 447.542 921.521 458.986 882.833 476.91C839.536 497.039 795.96 528.199 772.357 565.287C769.144 570.251 766.351 575.352 763.977 580.454C746.099 618.507 748.055 655.044 752.384 691.443C755.736 719.983 761.044 750.178 770.96 782.578C776.407 800.226 783.251 818.288 790.234 836.35C804.62 873.576 820.961 916.593 802.385 954.095C782.133 994.906 732.272 1009.38 687.16 1013.93C680.875 1014.62 674.59 1015.04 668.305 1015.45C617.327 1018.48 568.024 1015.45 520.119 1020.55C508.107 1021.79 496.096 1023.72 484.224 1026.07C419 1039.16 357.546 1071.43 317.462 1116.65C277.517 1161.87 262.853 1219.64 270.395 1257.28" stroke="#363636" stroke-miterlimit="10"/>
<path d="M1462.87 -32.6766C1412.31 -47.9808 1356.16 -41.087 1311.89 -15.4423C1285.07 -0.000277158 1262.87 21.9218 1246.94 47.4287C1236.33 64.3873 1228.65 82.8626 1224.18 101.889C1213.7 147.664 1221.38 196.058 1210.07 246.382C1207.28 258.653 1203.37 270.51 1198.76 281.678C1182.7 320.145 1157 351.857 1130.46 373.227C1096.24 400.94 1060.63 414.452 1019.71 427.688C1010.77 430.583 1001.55 433.479 991.912 436.374C957.135 447.128 918.029 457.193 878.922 474.703C834.927 494.282 791.072 526.406 768.725 564.873C765.792 569.975 763.138 575.352 760.904 580.729C744.702 620.299 749.87 657.801 757.133 694.752C762.719 723.568 770.122 754.038 781.574 786.439C787.859 804.225 795.401 822.148 803.083 840.21C818.865 877.298 836.463 920.591 817.888 958.507C798.055 999.042 748.334 1013.11 703.64 1018.07C697.355 1018.76 691.21 1019.31 684.925 1019.86C634.366 1023.72 585.343 1022.2 537.996 1029.1C526.124 1030.75 514.252 1033.1 502.52 1035.99C438.274 1051.43 378.357 1086.04 341.345 1133.61C304.473 1181.04 294.557 1240.74 307.685 1277.41" stroke="#363636" stroke-miterlimit="10"/>
<path d="M1469.85 -29.7809C1418.87 -44.8093 1362.17 -36.9504 1317.89 -9.78905C1291.22 6.4802 1269.43 29.3675 1254.21 55.8395C1244.15 73.3496 1237.03 92.3763 1233.4 111.817C1224.74 158.694 1235.07 207.778 1223.9 258.516C1221.25 270.924 1217.2 282.782 1212.31 294.087C1195.55 332.555 1167.61 363.852 1138.84 383.844C1101.69 409.765 1063 420.657 1019.99 431.273C1010.63 433.617 1000.85 435.961 990.796 438.305C954.622 447.129 914.538 455.815 874.733 472.773C830.039 491.8 785.905 524.89 764.815 564.736C762.022 570.113 759.508 575.49 757.552 581.143C743.027 622.092 751.547 660.697 761.742 698.199C769.564 727.429 778.921 758.175 791.91 790.437C799.033 808.223 807.274 826.147 815.654 844.071C832.693 881.021 851.688 924.728 833.112 963.057C813.559 1003.32 764.117 1017.1 719.842 1022.34C713.697 1023.03 707.552 1023.72 701.406 1024.27C651.266 1028.82 602.522 1029.1 555.734 1037.65C544.002 1039.85 532.27 1042.47 520.817 1045.78C457.548 1063.57 399.168 1100.66 365.229 1150.43C331.29 1200.06 326.122 1261.69 345.117 1297.4" stroke="#363636" stroke-miterlimit="10"/>
<path d="M1476.97 -26.8858C1425.44 -41.6385 1368.17 -32.6766 1324.18 -4.27434C1297.64 12.8222 1276.27 36.8124 1261.75 63.9738C1252.11 82.1733 1245.69 101.752 1242.75 121.606C1235.91 169.586 1248.76 219.221 1237.86 270.511C1235.21 283.057 1231.16 294.914 1225.99 306.22C1208.39 344.825 1178.37 375.571 1147.36 394.184C1107.28 418.45 1065.66 426.447 1020.4 434.444C1010.49 436.236 1000.43 438.029 989.956 439.821C952.246 446.715 911.324 454.022 870.96 470.567C825.429 489.18 781.154 523.098 761.322 564.322C758.668 569.837 756.434 575.49 754.618 581.281C741.769 623.746 753.64 663.316 766.629 701.37C776.685 731.013 788.138 761.897 802.524 794.16C810.345 812.221 819.284 830.145 828.362 848.069C846.798 884.881 867.05 929.001 848.474 967.606C829.2 1007.73 780.037 1020.96 736.182 1026.62C730.036 1027.44 723.891 1028.13 717.885 1028.82C668.304 1034.06 619.839 1036.13 573.47 1046.33C561.878 1048.95 550.286 1051.99 538.973 1055.71C476.681 1075.84 419.976 1115.41 388.97 1167.25C358.104 1219.09 357.685 1282.65 382.406 1317.4" stroke="#363636" stroke-miterlimit="10"/>
<path d="M1484.1 -23.9903C1432 -38.4671 1374.18 -28.5401 1330.32 1.37873C1303.93 19.3025 1282.98 44.2579 1269.15 72.3843C1260.07 91.1353 1254.07 111.265 1251.97 131.671C1246.94 180.754 1262.45 231.078 1251.55 282.782C1248.9 295.466 1244.71 307.461 1239.4 318.767C1221.11 357.372 1188.84 387.567 1155.6 404.939C1112.72 427.412 1067.89 432.79 1020.4 438.167C1010.07 439.408 999.454 440.511 988.56 441.889C949.454 446.853 907.554 452.781 866.492 468.913C820.262 486.974 775.708 521.719 757.133 564.46C754.619 570.113 752.663 576.042 751.127 581.97C739.954 625.952 755.177 666.488 771.099 705.093C783.39 735.149 796.798 766.171 812.72 798.434C821.519 816.22 831.156 834.006 840.793 851.93C860.626 888.604 882.134 933 863.559 972.157C844.704 1012 795.681 1024.96 752.244 1030.89C746.239 1031.72 740.093 1032.55 734.088 1033.24C684.925 1039.16 636.74 1042.89 590.929 1054.88C579.477 1057.91 568.024 1061.36 556.851 1065.5C495.537 1087.97 440.369 1130.02 412.296 1184.07C384.362 1238.12 388.832 1303.47 419.279 1337.39" stroke="#363636" stroke-miterlimit="10"/>
<path d="M1491.08 -21.0951C1438.43 -35.2962 1380.05 -24.4041 1336.47 6.89355C1310.21 25.6445 1289.68 51.565 1276.69 80.6567C1268.03 99.9592 1262.73 120.64 1261.33 141.46C1258.12 191.784 1276.13 242.66 1265.52 294.777C1262.87 307.599 1258.68 319.594 1253.09 331.038C1233.96 369.781 1199.6 399.424 1164.12 415.417C1118.31 436.236 1070.55 438.856 1020.82 441.613C1010.07 442.303 998.896 442.854 987.723 443.682C947.22 446.715 904.342 451.265 862.582 466.845C815.654 484.355 770.821 520.064 753.642 564.322C751.267 570.251 749.452 576.317 748.195 582.522C738.697 627.883 757.273 669.659 775.988 708.815C790.514 739.285 806.017 770.445 823.475 802.57C833.112 820.356 843.447 838.142 853.783 855.928C875.012 892.602 897.778 937.274 879.342 976.706C860.766 1016.28 812.022 1028.82 769.005 1035.3C762.999 1036.13 756.994 1037.1 750.988 1037.92C702.244 1044.54 654.339 1050.06 608.947 1063.71C597.634 1067.15 586.321 1071.15 575.287 1075.7C514.951 1100.52 461.319 1144.91 436.319 1201.3C411.458 1257.56 420.676 1324.84 456.85 1357.79" stroke="#363636" stroke-miterlimit="10"/>
<path d="M1498.2 -18.1997C1444.99 -32.1251 1386.05 -20.2679 1342.76 12.5464C1316.64 32.1246 1296.53 59.0102 1284.23 88.9291C1275.99 108.783 1271.39 130.154 1270.83 151.387C1269.43 202.814 1290.1 254.241 1279.63 306.91C1277.11 319.732 1272.64 332.003 1266.92 343.309C1247.08 382.189 1210.49 411.281 1172.78 426.034C1124.04 445.06 1073.2 444.922 1021.24 445.198C1009.93 445.198 998.477 445.336 986.745 445.612C944.705 446.715 900.99 449.886 858.671 465.052C811.044 482.149 766.072 518.686 750.01 564.322C747.915 570.389 746.239 576.593 745.122 583.073C737.3 629.951 759.088 672.692 780.737 712.4C797.497 743.284 814.955 774.582 833.95 806.706C844.425 824.354 855.458 842.278 866.492 860.064C888.978 896.601 913.001 941.548 894.705 981.532C876.408 1020.83 827.804 1033.1 785.346 1039.85C779.34 1040.82 773.474 1041.78 767.468 1042.61C719.144 1049.92 671.517 1057.23 626.684 1072.53C615.371 1076.39 604.338 1080.8 593.583 1085.77C534.225 1112.93 482.129 1159.8 460.202 1218.26C438.274 1276.72 452.241 1345.94 494.141 1377.92" stroke="#262626" stroke-miterlimit="10"/>
<path d="M1505.33 -15.4423C1451.56 -29.092 1392.06 -16.1317 1348.9 17.9234C1322.92 38.4667 1303.23 66.3175 1291.64 97.0636C1283.96 117.607 1279.91 139.391 1280.05 161.175C1280.46 213.706 1303.65 265.823 1293.45 318.904C1290.94 331.865 1286.47 344.136 1280.32 355.579C1259.65 394.46 1220.97 423.138 1181.16 436.512C1129.62 453.884 1075.57 450.989 1021.52 448.507C1009.79 447.955 997.779 447.542 985.768 447.266C942.332 446.439 897.499 448.231 854.621 462.984C806.296 479.529 761.044 517.031 746.24 564.046C744.284 570.251 742.888 576.731 742.05 583.349C735.904 631.743 761.044 675.449 785.626 715.709C804.62 746.868 824.174 778.442 844.565 810.567C855.878 828.215 867.61 846.001 879.202 863.786C903.085 900.185 928.365 945.546 910.069 985.806C892.052 1024.96 843.727 1036.68 801.687 1043.85C795.821 1044.82 789.955 1045.78 784.089 1046.88C736.184 1055.02 688.837 1063.84 644.562 1080.94C633.389 1085.21 622.495 1090.04 611.88 1095.42C553.5 1124.92 503.08 1174.28 484.085 1234.95C465.23 1295.61 483.946 1366.75 531.572 1397.78" stroke="#363636" stroke-miterlimit="10"/>
<path d="M1512.45 -12.5466C1458.12 -25.9205 1398.2 -11.9951 1355.19 23.5767C1329.35 44.9473 1310.07 73.7632 1299.18 105.474C1291.92 126.569 1288.57 148.905 1289.4 171.103C1291.64 224.736 1317.48 277.405 1307.28 331.038C1304.77 344.136 1300.16 356.545 1293.87 367.851C1272.5 406.869 1231.72 434.858 1189.54 446.991C1135.07 462.571 1078.09 456.918 1021.8 451.954C1009.51 450.851 997.22 449.886 984.65 449.059C939.817 446.301 894.007 446.715 850.57 461.054C801.547 477.048 756.016 515.377 742.468 563.909C740.653 570.389 739.396 577.007 738.837 583.763C734.368 633.536 762.86 678.483 790.234 719.156C811.464 750.729 832.972 782.441 855.04 814.566C867.191 832.214 879.481 849.999 891.912 867.785C917.191 904.046 943.728 949.683 925.432 990.494C907.834 1029.37 859.649 1040.82 818.028 1048.26C812.162 1049.37 806.296 1050.33 800.57 1051.43C753.083 1060.26 706.015 1070.88 662.3 1089.63C651.266 1094.31 640.512 1099.55 630.037 1105.34C572.634 1137.19 523.75 1188.9 507.828 1251.91C491.906 1314.91 515.51 1387.85 568.863 1417.91" stroke="#363636" stroke-miterlimit="10"/>
<path d="M1519.43 -9.65146C1464.68 -22.7496 1404.07 -7.85908 1361.19 29.0914C1318.31 66.0419 1294.43 124.225 1298.62 180.892C1302.67 235.628 1331.16 288.986 1321.11 343.033C1310.21 401.63 1255.32 443.544 1197.92 457.469C1140.52 471.394 1080.46 462.984 1021.94 455.401C963.421 447.818 902.805 441.475 846.38 458.986C789.955 476.496 738.697 524.614 735.485 584.038C732.691 635.328 764.535 681.24 794.843 722.465C831.296 772.1 867.889 821.873 904.342 871.508C931.018 907.769 958.812 953.681 940.515 994.768C923.336 1033.37 875.291 1044.4 834.089 1052.26C769.424 1064.53 704.339 1080.94 648.053 1114.99C591.628 1149.19 544.281 1203.37 531.432 1268.59C518.582 1333.8 546.935 1408.67 606.014 1437.76" stroke="#3A3A3A" stroke-miterlimit="10"/>
<path d="M1487.31 -13.6497C1435.07 -20.6813 1380.74 -1.10307 1344.57 36.3989C1308.4 74.0388 1291.36 129.051 1299.32 185.442C1306.86 239.075 1336.05 292.984 1327.39 347.859C1317.89 407.145 1264.4 451.403 1206.86 466.431C1150.85 481.046 1091.77 472.773 1034.23 466.569C974.454 460.089 912.582 455.677 854.9 473.601C798.893 491.111 747.636 537.575 743.446 596.447C739.814 647.185 770.681 693.235 800.709 734.322C836.603 783.406 872.777 832.351 908.671 881.435C935.068 917.696 962.303 963.746 944.007 1004.83C926.688 1043.58 878.783 1055.16 837.441 1063.15C773.753 1075.29 709.646 1091.14 653.919 1124.78C598.192 1158.43 551.544 1212.2 538.974 1276.58C526.404 1340.97 554.058 1414.87 611.88 1444.38" stroke="#363636" stroke-miterlimit="10"/>
<path d="M1455.33 -17.786C1405.74 -18.7512 1357.7 5.37695 1328.23 43.5683C1298.76 81.7597 1288.56 133.739 1300.3 189.716C1311.33 242.246 1341.22 296.569 1333.82 352.408C1325.58 412.384 1273.62 458.986 1215.8 475.117C1161.05 490.421 1103.09 482.424 1046.52 477.461C985.487 472.084 922.497 469.602 863.418 487.939C807.831 505.174 756.434 550.397 751.406 608.58C747.076 658.767 776.965 704.955 806.574 745.904C841.77 794.436 877.804 842.554 913 891.086C939.257 927.485 965.794 973.673 947.637 1014.76C930.319 1053.78 882.553 1065.91 841.072 1074.05C778.361 1086.18 715.092 1101.48 660.203 1134.57C605.035 1167.8 559.364 1221.02 546.934 1284.72C534.503 1348.42 561.599 1421.08 618.164 1451" stroke="#363636" stroke-miterlimit="10"/>
<path d="M1423.2 -21.9224C1376.27 -16.9589 1334.37 11.857 1311.61 50.5999C1288.7 89.3428 1285.35 138.151 1300.99 193.99C1315.38 245.417 1346.39 300.291 1340.1 356.958C1333.4 417.761 1282.84 466.569 1224.74 483.941C1171.38 499.934 1114.26 492.351 1058.81 488.629C996.521 484.492 932.414 483.803 871.938 502.416C816.77 519.513 765.233 563.219 759.367 620.713C754.199 670.348 783.25 716.674 812.44 757.485C846.938 805.603 882.692 852.757 917.33 900.737C943.447 937.136 969.286 983.462 951.129 1024.55C933.81 1063.71 886.044 1076.39 844.424 1084.8C782.691 1096.93 720.26 1111.69 666.209 1144.09C611.739 1176.76 566.766 1229.57 554.615 1292.44C542.464 1355.31 568.861 1427.01 624.169 1457.2" stroke="#363636" stroke-miterlimit="10"/>
<path d="M1391.08 -25.9204C1346.81 -14.8904 1311.19 18.4753 1294.99 57.9076C1278.79 97.2019 1282.14 142.839 1301.69 198.402C1319.29 248.589 1351.27 304.014 1346.25 361.784C1340.94 423.276 1291.78 474.29 1233.4 492.903C1181.3 509.448 1125.29 502.417 1070.68 499.797C1007.14 496.764 941.911 498.005 880.039 517.031C825.29 533.99 773.753 576.317 766.909 633.122C760.903 682.205 788.976 728.669 817.748 769.343C851.547 816.909 887.162 863.235 921.101 910.664C947.079 947.201 972.219 993.527 954.062 1034.61C936.604 1073.91 889.117 1087.28 847.357 1095.69C786.602 1107.96 725.009 1122.03 671.796 1153.88C618.024 1186.14 573.75 1238.53 561.878 1300.44C550.007 1362.34 575.705 1433.07 629.756 1463.68" stroke="#262626" stroke-miterlimit="10"/>
<path d="M1358.96 -30.0571C1317.2 -12.9606 1288.01 24.8171 1278.37 65.0766C1268.87 104.785 1278.79 147.388 1302.39 202.814C1323.2 251.897 1356.3 307.874 1352.53 366.471C1348.48 428.653 1300.85 481.873 1242.33 501.727C1191.5 518.823 1136.47 509.034 1082.97 510.826C1018.17 513.032 951.688 512.067 888.559 531.508C834.228 548.328 782.552 589.277 774.87 645.255C768.166 693.787 795.261 740.388 823.614 780.923C856.715 827.939 892.19 873.3 925.431 920.315C951.269 956.852 975.711 1003.45 957.554 1044.54C940.096 1084.11 892.609 1098.04 850.709 1106.58C790.932 1118.86 730.177 1132.37 677.802 1163.66C624.728 1195.38 581.292 1247.35 569.42 1308.57C557.688 1369.79 582.828 1439.28 635.622 1470.3" stroke="#363636" stroke-miterlimit="10"/>
<path d="M1326.83 -34.0552C1287.73 -10.8922 1264.68 31.2975 1261.89 72.2464C1259.1 112.368 1275.58 151.938 1303.09 207.088C1326.97 254.931 1361.33 311.46 1358.82 371.022C1356.16 433.893 1309.93 489.318 1251.13 510.413C1201.69 528.061 1147.5 518.548 1095.13 521.857C1029.2 525.993 961.466 526.131 896.94 545.985C843.028 562.53 791.212 602.1 782.692 657.526C775.15 705.644 801.408 752.246 829.341 792.781C861.744 839.245 897.08 883.779 929.482 930.242C955.181 966.917 978.924 1013.52 960.907 1054.61C943.449 1094.31 896.102 1108.79 853.922 1117.61C795.123 1129.89 735.206 1142.71 683.529 1173.59C631.014 1204.89 588.416 1256.32 576.824 1316.71C565.232 1377.1 589.813 1445.62 641.21 1476.92" stroke="#363636" stroke-miterlimit="10"/>
<path d="M1294.85 -38.1914C1258.4 -9.09978 1241.5 37.6398 1245.41 79.4159C1249.18 119.951 1272.22 156.488 1303.93 211.5C1330.88 258.24 1366.36 315.32 1365.1 375.847C1363.85 439.408 1319.15 497.039 1259.93 519.375C1211.75 537.574 1158.4 528.475 1107.28 533.025C1040.1 538.953 971.242 540.47 905.319 560.462C851.827 576.869 800.011 615.06 790.513 669.797C782.133 717.364 807.413 764.241 835.067 804.501C866.771 850.413 901.828 894.119 933.672 940.032C959.231 976.706 982.276 1023.45 964.259 1064.53C946.8 1104.38 899.453 1119.54 857.274 1128.37C799.452 1140.64 740.513 1152.91 689.534 1183.24C637.718 1213.99 595.818 1265 584.505 1324.7C573.192 1384.4 597.075 1451.69 647.215 1483.4" stroke="#363636" stroke-miterlimit="10"/>
<path d="M1262.73 -42.1899C1228.93 -7.03182 1218.17 44.1198 1228.79 86.7232C1238.98 127.672 1268.59 161.176 1304.63 216.05C1334.52 261.687 1371.25 319.18 1371.39 380.673C1371.39 444.922 1328.23 504.76 1268.87 528.475C1221.94 547.226 1169.57 538.815 1119.57 544.33C1051.27 551.913 981.019 554.809 913.839 575.214C860.766 591.483 808.81 628.158 798.474 682.205C789.396 729.221 813.559 776.236 840.933 816.358C871.939 861.856 906.856 904.598 938.002 949.958C963.281 986.771 985.768 1033.65 967.751 1074.6C950.153 1114.72 903.085 1130.3 860.626 1139.4C803.782 1151.67 745.681 1163.39 695.54 1193.03C644.422 1223.36 603.221 1273.83 592.187 1332.7C581.153 1391.57 604.338 1457.89 653.221 1490.01" stroke="#363636" stroke-miterlimit="10"/>
<path d="M1230.6 -46.3262C1199.46 -5.10155 1194.71 50.3242 1212.17 93.8927C1228.79 135.255 1264.96 165.726 1305.32 220.324C1338.15 264.72 1376.28 322.903 1377.53 385.223C1378.93 450.162 1337.17 512.068 1277.53 537.161C1232 556.325 1180.74 552.878 1131.44 555.222C1061.33 558.669 990.516 568.734 921.94 589.553C869.286 605.685 817.19 640.981 806.017 694.338C796.1 740.802 819.425 787.955 846.38 827.939C876.688 872.886 911.325 914.8 941.912 959.61C967.052 996.422 988.84 1043.44 970.963 1084.52C953.365 1124.78 906.297 1140.92 863.839 1150.29C807.972 1162.56 750.709 1173.73 701.406 1202.82C650.847 1232.6 610.623 1282.65 599.729 1340.83C588.835 1398.88 611.461 1464.09 659.087 1496.63" stroke="#363636" stroke-miterlimit="10"/>
<path d="M1198.48 -50.3247C1169.85 -3.17146 1171.1 56.9421 1195.55 101.062C1218.59 142.838 1261.33 170.413 1306.02 224.736C1341.78 268.167 1381.16 326.626 1383.82 389.91C1386.47 455.539 1346.25 519.651 1286.47 545.985C1242.19 565.563 1191.91 563.081 1143.73 566.39C1072.36 571.354 1000.43 582.935 930.459 604.03C878.223 620.023 826.128 653.803 813.977 706.471C803.222 752.383 825.709 799.675 852.245 839.52C881.855 883.916 916.352 925.003 946.241 969.261C971.241 1006.21 992.331 1053.23 974.454 1094.31C956.856 1134.71 909.928 1151.53 867.19 1160.91C812.301 1173.04 755.875 1183.66 707.411 1212.33C657.55 1241.7 618.024 1291.2 607.41 1348.55C596.795 1405.91 618.723 1470.02 665.092 1502.84" stroke="#363636" stroke-miterlimit="10"/>
<path d="M1166.36 -54.4609C1140.38 -1.2412 1147.64 63.2843 1179.07 108.232C1208.54 150.421 1257.7 175.101 1306.86 229.01C1345.41 271.338 1386.33 330.348 1390.24 394.598C1394.29 461.054 1355.46 526.958 1295.41 554.809C1252.39 574.8 1203.09 573.284 1156.02 577.42C1083.25 583.762 1010.21 596.998 938.979 618.507C887.162 634.225 834.927 666.763 821.938 718.742C810.485 764.103 831.854 811.532 858.112 851.24C887.023 895.084 921.241 935.481 950.431 979.05C975.292 1016.14 995.683 1063.29 977.806 1104.24C960.208 1144.78 913.28 1162.15 870.542 1171.8C816.631 1183.93 761.043 1194 713.277 1222.12C664.115 1250.94 625.287 1300.02 614.952 1356.55C604.617 1413.08 625.846 1476.09 670.958 1509.32" stroke="#363636" stroke-miterlimit="10"/>
<path d="M1134.37 -58.4595C1111.05 0.826771 1124.32 69.9022 1162.59 115.539C1198.48 158.28 1254.07 180.064 1307.7 233.56C1349.18 274.922 1391.36 334.208 1396.53 399.423C1401.83 466.568 1364.54 534.541 1304.35 563.908C1262.59 584.314 1214.4 583.762 1168.31 588.726C1094.29 596.722 1020.13 611.337 947.498 633.259C896.101 648.839 843.726 679.861 829.899 731.151C817.608 775.96 838.139 823.527 863.978 863.097C892.33 906.39 926.129 945.96 954.761 988.977C979.342 1026.07 999.175 1073.36 981.298 1114.31C963.56 1155.12 916.772 1172.9 873.894 1182.83C820.96 1194.96 766.211 1204.48 719.283 1231.91C670.679 1260.31 632.69 1308.85 622.634 1364.69C612.438 1420.39 633.109 1482.29 676.964 1515.94" stroke="#363636" stroke-miterlimit="10"/>
<path d="M1102.25 -62.5957C1081.58 2.61916 1100.71 76.3823 1145.97 122.708C1188.28 166.001 1250.3 184.89 1308.4 237.834C1352.67 278.231 1396.25 337.931 1402.81 403.973C1409.52 471.808 1373.62 541.848 1313.15 572.594C1272.5 593.276 1225.44 593.965 1180.32 599.756C1105.04 609.269 1029.76 625.4 955.739 647.598C904.761 663.04 852.386 692.683 837.581 743.284C824.452 787.541 844.145 835.384 869.565 874.678C897.219 917.42 930.878 956.162 958.812 998.628C983.253 1035.85 1002.39 1083.15 984.65 1124.23C966.912 1165.18 920.264 1183.66 877.107 1193.58C825.151 1205.72 771.379 1214.68 725.149 1241.56C677.244 1269.55 640.092 1317.53 630.036 1372.55C620.12 1427.56 640.092 1488.36 682.691 1522.28" stroke="#363636" stroke-miterlimit="10"/>
<path d="M1070.13 -66.7319C1051.97 4.54943 1077.25 82.8624 1129.35 129.74C1178.09 173.584 1246.53 189.578 1309.1 242.108C1356.16 281.54 1401.28 341.516 1408.96 408.661C1416.92 477.185 1382.42 549.156 1321.95 581.418C1282.56 602.513 1236.47 604.306 1192.47 610.786C1115.8 622.092 1039.54 639.464 964.12 662.075C913.421 677.379 861.046 705.506 845.403 755.555C831.576 799.261 850.152 847.241 875.292 886.398C902.247 928.588 935.628 966.503 963.002 1008.42C987.304 1045.78 1005.74 1093.21 988.003 1134.16C970.265 1175.25 923.616 1194.27 880.459 1204.48C829.481 1216.47 776.547 1224.88 731.156 1251.35C683.948 1278.79 647.495 1326.49 637.719 1380.68C627.942 1434.86 647.356 1494.56 688.697 1528.9" stroke="#363636" stroke-miterlimit="10"/>
<path d="M1038 -70.73C1022.5 6.61788 1053.78 89.4807 1112.72 137.048C1167.89 181.443 1242.75 194.679 1309.79 246.52C1359.65 285.125 1406.16 345.377 1415.24 413.349C1424.46 482.562 1391.36 556.325 1330.74 590.243C1292.61 611.613 1247.64 614.647 1204.62 621.816C1126.69 634.776 1049.18 653.527 972.499 676.552C922.219 691.581 869.704 718.466 853.223 767.688C838.558 810.843 856.296 858.961 881.017 898.117C907.275 939.756 940.515 976.844 967.192 1018.21C991.354 1055.57 1009.09 1103.14 991.354 1144.09C973.616 1185.45 927.107 1204.89 883.671 1215.37C833.67 1227.36 781.574 1235.22 737.021 1261.14C690.372 1288.17 654.757 1335.32 645.26 1388.68C635.762 1442.03 654.478 1500.77 694.562 1535.51" stroke="#363636" stroke-miterlimit="10"/>
<path d="M1005.88 -74.8662C993.029 8.54815 1030.32 95.9609 1096.24 144.217C1157.84 189.302 1239.12 199.643 1310.63 250.932C1363.29 288.71 1411.19 349.237 1421.53 418.037C1432.14 487.939 1400.3 563.633 1339.68 599.205C1302.67 620.851 1258.82 625.263 1216.92 632.984C1137.72 647.737 1059.09 667.866 980.879 691.029C931.017 705.92 878.503 731.427 861.045 779.959C845.542 822.562 862.441 870.818 886.743 909.837C912.302 950.924 945.263 987.185 971.241 1028C995.124 1065.5 1012.3 1113.06 994.705 1154.01C976.828 1195.51 930.459 1215.51 887.022 1226.26C837.999 1238.26 786.742 1245.56 743.026 1270.79C697.076 1297.27 662.159 1344.01 652.941 1396.54C643.723 1449.2 661.74 1506.7 700.567 1541.86" stroke="#363636" stroke-miterlimit="10"/>
<path d="M973.756 -78.8647C963.56 10.4782 1006.86 102.717 1079.62 151.386C1147.64 197.023 1235.21 204.606 1311.33 255.206C1366.78 292.157 1416.08 352.822 1427.81 422.587C1439.68 493.179 1409.24 570.664 1348.48 607.89C1312.73 629.813 1269.99 635.465 1229.07 644.014C1148.62 660.697 1068.87 681.929 989.259 705.506C939.817 720.259 887.163 744.249 868.866 792.091C852.665 834.143 868.587 882.537 892.47 921.418C917.471 961.953 950.013 997.387 975.432 1037.65C999.175 1075.29 1015.66 1122.99 998.058 1163.94C980.181 1205.58 933.951 1226.26 890.235 1237.01C842.19 1248.87 791.77 1255.76 748.753 1280.44C703.501 1306.5 669.423 1352.69 660.344 1404.53C651.266 1456.37 668.724 1512.9 706.294 1548.34" stroke="#363636" stroke-miterlimit="10"/>
<path d="M941.771 -83.001C934.229 12.4085 983.531 109.197 1063.14 158.556C1137.58 204.744 1231.58 209.708 1312.17 259.618C1370.41 295.742 1421.11 356.682 1434.24 427.412C1447.22 498.831 1418.31 577.972 1357.56 616.852C1322.92 639.05 1281.3 646.082 1241.36 655.182C1159.79 673.795 1078.64 696.13 997.777 720.121C948.754 734.735 895.96 757.347 876.826 804.5C859.787 846.138 874.871 894.533 898.335 933.275C922.637 973.259 954.9 1008 979.76 1047.57C1003.22 1085.35 1019.01 1133.06 1001.55 1174.01C983.671 1215.92 937.441 1237.01 893.726 1248.04C846.658 1259.9 797.076 1266.24 754.897 1290.37C710.204 1315.88 676.963 1361.65 668.164 1412.67C659.365 1463.68 676.125 1519.11 712.299 1554.95" stroke="#363636" stroke-miterlimit="10"/>
<path d="M909.649 -86.999C904.621 14.477 959.929 115.953 1046.52 165.864C1127.39 212.741 1227.81 214.947 1312.87 264.031C1373.9 299.327 1426 360.405 1440.38 432.1C1454.77 504.209 1426.97 585.142 1366.22 625.677C1332.7 648.013 1292.34 656.561 1253.37 666.212C1170.55 686.893 1088.28 710.194 1006.02 734.46C957.415 748.937 904.621 770.032 884.509 816.634C866.771 857.72 880.738 906.252 903.922 944.857C927.526 984.29 959.51 1018.21 983.812 1057.23C1007.14 1095 1022.22 1142.85 1004.76 1183.79C986.884 1225.85 940.655 1247.36 896.799 1258.8C850.709 1270.52 802.105 1276.31 760.624 1300.02C716.629 1325.12 684.087 1370.34 675.567 1420.66C666.908 1470.99 683.109 1525.31 718.026 1561.43" stroke="#363636" stroke-miterlimit="10"/>
<path d="M877.526 -91.1357C875.151 16.2689 936.605 122.433 1030.04 173.033C1117.33 220.462 1224.18 220.048 1313.7 268.442C1377.67 303.049 1431.02 364.265 1446.81 436.788C1462.45 509.586 1435.91 592.173 1375.3 634.5C1342.89 657.112 1303.79 667.039 1265.8 677.379C1181.86 700.267 1098.34 724.395 1014.68 749.074C966.493 763.276 913.56 783.13 892.61 828.904C874.034 869.439 887.163 918.109 909.789 956.576C932.834 995.457 964.538 1028.55 988.142 1067.01C1011.19 1104.93 1025.71 1152.91 1008.39 1193.72C990.376 1235.91 944.426 1258.11 900.291 1269.55C855.179 1281.27 807.413 1286.51 766.77 1309.54C723.473 1334.08 691.769 1378.89 683.389 1428.38C675.009 1477.88 690.512 1531.1 724.172 1567.64" stroke="#363636" stroke-miterlimit="10"/>
<path d="M845.402 -95.1338C845.682 18.3373 913.141 129.051 1013.42 180.203C1107.28 228.183 1220.41 225.15 1314.4 272.717C1381.16 306.634 1436.05 367.85 1452.95 441.476C1469.99 514.963 1444.57 599.205 1383.96 643.462C1352.67 666.35 1314.82 677.656 1277.81 688.548C1192.89 713.641 1107.98 738.596 1022.92 763.69C975.153 777.753 922.079 796.09 900.291 841.313C880.878 881.297 893.168 930.105 915.375 968.434C937.722 1006.76 969.147 1039.03 992.052 1077.08C1014.96 1115.13 1028.78 1163.11 1011.47 1204.06C993.449 1246.39 947.499 1269.14 903.364 1280.86C859.229 1292.58 812.301 1297.27 772.496 1319.74C729.758 1343.87 698.892 1388.13 690.652 1436.93C682.551 1485.6 697.356 1537.72 729.759 1574.67" stroke="#202020" stroke-miterlimit="10"/>
</svg>
